<svg version="1" xmlns="http://www.w3.org/2000/svg" width="1018.667" height="1018.667" viewBox="0 0 764.000000 764.000000"><path d="M443.7 14.6c-.1.1-3.8.4-8.2.8-12 .8-20.3 2.1-29 4.3-3.3.8-6.8 1.7-7.7 1.9-1 .2-2.6.6-3.5.8-14.9 3.5-53 20-72.1 31.3-16.3 9.5-47.7 30.8-52.8 35.7-.6.6-2.6 2.2-4.4 3.6-1.8 1.4-3.8 2.9-4.4 3.5-.6.5-2.9 2.5-5.1 4.4-12.2 10.3-21.2 18.7-41 38.6-21.3 21.3-27.1 27.4-34.5 36.5-4.5 5.6-9.3 11.4-10 12-1.6 1.5-16.5 21-23.7 31-4.5 6.3-8.7 12-9.3 12.7-.5.7-1 1.4-1 1.7 0 .2-2.5 4-5.5 8.5s-5.2 8.1-4.8 8.1c.3 0-.1.8-.9 1.7-2 2.3-6.1 9.7-10.9 19.5-14.1 28.5-17 50.1-7.3 53.8 3.3 1.3 6.4 1.3 6.4-.1 0-1.1 6.6-14.6 9.8-19.9 1.2-1.9 3.1-5.3 4.3-7.5 1.2-2.2 2.5-4.2 2.8-4.5.4-.3 3.8-5.5 7.6-11.5 3.8-6.1 7.3-11.5 7.8-12 .4-.6 4.1-5.6 8.2-11.3 7.1-9.9 19.7-25.9 24.6-31.3 1.3-1.4 5.1-5.7 8.4-9.5 9.2-10.6 34.8-35.8 46.8-46.2 9-7.9 26.4-21.3 33.3-25.9 1.1-.7 4.3-2.9 7.3-4.9 8.7-5.9 28-17.4 29.1-17.4.5 0 1-.4 1-.9s1-1.3 2.2-1.6c1.1-.4 4.4-2.1 7.2-3.7 2.7-1.7 7.3-3.9 10.1-4.9 2.7-1.1 5.9-2.4 7-2.9 6.4-2.9 32.9-10.8 41.6-12.4 1.3-.3 2.4-.5 2.4-.6 0-.2.3-.2 9.5-1.5 3-.4 5.7-.8 6.1-1 .9-.6 20.1-1.8 29.4-1.8 11.9 0 21 1 32.2 3.4 46.1 10 74.3 36.5 83.8 78.9 1.5 7.1 2.3 30.1 1.1 37.5-.3 2.2-.8 5.7-1.1 7.8-1.2 10-8.4 31.9-14.8 44.7-8.2 16.7-23 37.5-35.1 49.6-9.1 9-22.1 18.4-31.7 22.8-4.6 2.1-9.2 4.3-10.2 4.8-1.1.5-2.1.7-2.3.5-.5-.4-1.2-5-1.9-12.7-.3-2.5-.7-5.6-.9-7-.6-3.3-1.4-8.4-2.1-14.5-.4-2.8-.8-5.7-1-6.5-.2-.8-.7-3.1-1-5-.3-1.9-1.1-5.5-1.6-8-.6-2.5-1.2-5.3-1.4-6.2-1-4.8-3.8-14.5-4.6-16-.5-1-.9-2.7-.9-3.8 0-1.1-.4-2.8-.9-3.8-2.1-4.1-4.2-9.9-4-11.2.2-2.4-16.4-34-18.3-34.8-.4-.2-.8-.8-.8-1.3 0-2.1-16.7-19.7-22.3-23.6-2.3-1.5-4.4-3-4.7-3.3-.8-.8-5.1-3.2-11.2-6.2-13.1-6.3-34.7-9.8-47.7-7.7-2.5.4-6.4 1.1-8.5 1.4-6 1-15.6 5.8-20.9 10.5-4.3 3.8-9.5 11.1-10.1 14.2-.2.7-.7 3.1-1.1 5.3-1.1 5.3-1 8.3.9 19 .3 1.8 3.7 10.5 7.1 18 4.6 10.4 6.5 14.5 12.7 27.5 3.8 8 8.3 17.9 10 22 9.5 23.6 20.8 62.1 24.2 82 .2 1.4.7 3.2 1 4 .2.8.7 3.3 1 5.5.6 4.2 1.4 9.2 2.2 13.5.8 4.4 2.5 16.4 3 21 .2 2.5.7 6.1 1 8 3.3 21.3 3.8 88.9.9 113.7-.3 2.3-.8 6.8-1.1 10-1 9.6-1.2 10.8-1.4 10.8-.2 0-.3 1.1-1.4 10-.8 6.9-5.9 31.6-8.5 41-.6 2.2-1.2 5.1-1.5 6.5-.2 1.4-.5 2.5-.6 2.5-.1 0-.3.8-.6 1.7-.7 3.2-1 4.2-3.1 11.3-2.1 6.7-4.4 16.8-4.9 21-3 24.8 2.3 35.6 17.3 34.9 7.9-.4 13.8-2.7 22.2-8.9 4.1-3 15.1-14.8 18.6-19.8 3.7-5.5 11.3-18.7 13.4-23.2.5-1.1 2.5-5.6 4.6-10 5.7-12.5 19.9-50.6 21.1-56.8.2-1 .6-2.7.9-3.7.3-1 .8-2.7 1-3.7.2-1 1.8-7 3.4-13.3 1.6-6.3 3.2-12.6 3.4-14 .3-1.4 1-4.3 1.5-6.5.6-2.2 1.3-5.1 1.6-6.5.3-1.4.7-3.6 1-5 .3-1.4 1-5 1.6-8 .6-3 1.2-6.6 1.5-8 .3-1.3.7-4.2 1.1-6.5.3-2.2.9-5.8 1.4-8 .5-2.2 1.1-6 1.4-8.5.3-2.5.8-5.6 1.1-7 .3-1.4.8-4.5 1.1-7 .3-2.5.8-5.4 1-6.5.3-1.1.7-3.6 1-5.5.3-1.9.7-4 .9-4.7.2-.6.7-3.8 1.1-7 .3-3.2.7-5.9.8-6 .4-.5 24.5 12.2 31.7 16.8 36.1 23 59.8 53.7 68.5 88.4 2.7 11.1 4 33.1 2.3 40-.4 1.6-1 4.6-1.2 6.5-.8 5.3-3.8 16.4-4.8 17.5-.5.5-.9 1.7-.9 2.6 0 1.6-9.6 21.8-10.9 22.9-.3.3-1.2 1.4-1.9 2.5-13.1 20.8-35.5 40.3-60.7 52.9-20.1 10-45.8 18.2-63 20.1-1.6.2-5.9.7-9.5 1.1-15.1 1.8-55.6.6-73-2.2-1.9-.3-5.1-.8-7-1-3.2-.4-10.7-1.6-17-2.8-3-.5-21.6-4.5-24.5-5.2-2.5-.6-5.4-1.3-8-1.8-1.1-.2-4-.9-6.5-1.6-2.5-.7-5.4-1.4-6.5-1.4-1.1-.1-3-.6-4.2-1-1.2-.4-3-.9-4-1.1-1-.2-8.6-2.1-17-4.3l-15.1-3.8-2.9 2c-6.2 4.5-7.5 6.3-8 11-.5 4.3-.3 4.9 2.9 7.9 4.5 4.2 31.4 17.8 49.3 25 13.4 5.3 17.4 6.9 18.5 7.2.3.1 4.9 1.6 10.3 3.3 8.9 2.9 33.8 9.8 39.1 10.8 1.2.2 3.2.6 4.6.9 3.5.7 19.1 3.6 21.5 3.9 1.1.2 4.3.6 7 1 2.8.3 6.8.9 9 1.2 2.2.3 6.7.6 10.1.8 3.3.1 6.5.5 7 .8 1 .6 48.5.2 55.5-.5 9-.9 19-2.3 31.2-4.2 5.2-.9 22-4.6 24.7-5.5 1.4-.5 5.2-1.6 8.5-2.6 6.8-1.9 29.5-10.9 34-13.4 1.7-.9 5.9-3.2 9.5-5.1 3.6-1.8 7.1-3.9 7.8-4.6.7-.7 2-1.3 2.8-1.3.8 0 1.4-.4 1.4-.8 0-.5 1.8-1.8 4-3.1 2.2-1.2 4.5-2.8 5.2-3.4.7-.7 3.3-2.8 5.8-4.7 12.7-9.9 24.2-21.7 34.5-35.5.8-1.1 2.6-3.4 3.8-5 13-16.8 27.8-52.7 31.2-75.6.4-2.4.8-4.6 1-4.9.3-.4.9-4.9 2.1-14.5 2.6-20.7 2-43.9-1.4-61.5-3.3-16.5-7.3-29.4-12.8-41.5-1.5-3.3-2.8-6.2-2.9-6.5-.5-2-6.8-13.1-12.2-21.2-13.4-20.2-34.3-40.6-55.6-54.2-3.1-2-6-3.6-6.3-3.5-.4 0-1-.3-1.3-.8-1-1.5-19.9-10.8-29.3-14.4-4.9-1.9-8.8-3.7-8.8-4 0-.3 1.9-1.9 4.3-3.6 4.1-3 5.6-4.3 13.3-11.4 5.2-4.8 14.9-15.3 19.9-21.3 5.1-6.3 18-24.4 19.7-27.6.7-1.4 2.7-4.8 4.3-7.5 5.8-9.3 18.4-36.8 20.1-43.5.2-.8 1.7-5.6 3.4-10.5 1.7-5 3.2-9.9 3.5-11 1.2-5.8 1.5-6.8 1.9-8.3.3-.9.7-2.8 1-4.2.3-1.4 1-5 1.5-8 .6-3 1.3-6.5 1.6-7.8 2.4-12.8 2.5-50.6.1-61.7-.4-1.7-1.6-7.8-3-15.5-.2-.8-.5-2.2-.8-3-.3-.8-1.4-4.2-2.3-7.5-2.6-9-8.3-22.1-13.4-30.5-2.5-4.1-4.7-7.7-5-8-.3-.3-2.4-2.7-4.6-5.5-4.2-5.2-16.6-17.5-17.6-17.5-.3 0-1.6-.9-2.9-2-1.2-1.1-4.6-3.4-7.4-5.2-2.8-1.8-5.2-3.6-5.4-4-.2-.5-.8-.8-1.3-.8-.6 0-5.1-2-10.2-4.4-16.5-8-33.5-12.5-54.2-14.3-6-.5-31.4-1.1-31.8-.7z"/></svg>