<?xml version="1.0" encoding="UTF-8" standalone="no"?>
<svg
   xmlns:dc="http://purl.org/dc/elements/1.1/"
   xmlns:cc="http://creativecommons.org/ns#"
   xmlns:rdf="http://www.w3.org/1999/02/22-rdf-syntax-ns#"
   xmlns:svg="http://www.w3.org/2000/svg"
   xmlns="http://www.w3.org/2000/svg"
   viewBox="0 0 820.73334 129.24001"
   height="129.24001"
   width="820.73334"
   xml:space="preserve"
   id="svg2"
   version="1.1"><metadata
     id="metadata8"><rdf:RDF><cc:Work
         rdf:about=""><dc:format>image/svg+xml</dc:format><dc:type
           rdf:resource="http://purl.org/dc/dcmitype/StillImage" /></cc:Work></rdf:RDF></metadata><defs
     id="defs6" /><g
     transform="matrix(1.3333333,0,0,-1.3333333,0,129.24)"
     id="g10"><g
       transform="scale(0.1)"
       id="g12"><path
         id="path14"
         style="fill:#231f20;fill-opacity:1;fill-rule:evenodd;stroke:none"
         d="m 3622.4,420.867 c 49.79,18.203 108.69,-26.258 146.62,-74.195 37.95,-47.942 91.25,-135.395 24.81,-178.039 -66.47,-42.656 -165.39,27.351 -198.89,105.332 -33.49,77.969 -22.3,128.711 27.46,146.902 z m 331.29,93.653 c -11.01,6.789 -522.38,13.742 -575.31,-256.676 -11.31,-152.063 133.38,-208.0081 219.94,-208.4026 86.54,-0.3789 218.07,33.7227 242.03,64.8746 21.76,8.047 41.1,-5.363 42.7,-24.5504 1.38,-16.9453 -0.08,-52.7617 22.42,-61.3867 84.35,-32.34374 215.57,19.6094 194.9,227.6951 -27.81,202.625 -51.66,251.332 -146.68,258.446 z M 5366.25,367.813 c -1.97,33.867 -3.71,163.503 240.18,157.863 232.96,-31.442 312.77,-2.383 386.38,-31.02 65.43,-13.133 121.96,-124.043 -62.44,-134.363 -81.29,7.512 -123.16,31.941 -152.91,47.91 -29.73,15.977 -75.02,32.871 -99.8,19.727 -24.79,-13.164 -25.88,-54.461 -16.96,-75.137 8.93,-20.664 43.62,-44.18 83.28,-50.742 39.65,-6.582 65.43,-13.156 95.16,-11.27 29.75,1.875 185.41,5.625 241.91,-12.226 56.51,-17.832 73.38,-55.418 74.36,-94.883 1,-39.461 -12.77,-61.113 -38.55,-86.4845 C 6014.51,-3.56641 5739.1,-24.3477 5530.33,29.0938 5460.88,46.875 5280.45,149.18 5410.86,201.523 c 32.75,13.145 111.05,-2.832 140.8,-17.851 45.16,-22.824 216.04,-137.7736 291.45,-82.695 34.14,24.941 34.49,59.179 11.69,85.488 -51.19,59.082 -200.97,39.226 -272.42,55.41 -45.68,9.961 -205.23,28.203 -216.13,125.938 z m -404.92,26.472 c -14.88,37.356 8.14,55.754 36.58,71.445 l 112.7,42.415 c 26.79,10.074 61.56,11.019 66.52,-26.68 4.98,-37.695 18.36,-336.906 -26.62,-402.2931 -43.58,-63.3711 -96.02,-52.5899 -145.72,-56.3789 -33.68,-2.5782 -40.16,14.8828 -40.59,32.1289 -1.54,52.4611 24.35,308.5231 -2.87,339.3631 z m 107.17,467.16 c 78.61,9.395 149.37,-8.468 157.5,-74.761 8.14,-66.301 -49.36,-99.465 -127.97,-108.864 -78.62,-9.382 -153.28,8.473 -157.5,74.762 -4.26,66.285 49.33,99.477 127.97,108.863 z M 4293.26,434.949 c 0,0 73.97,76.871 127.13,90.293 53.16,13.426 75.51,-6.211 86.19,-28.328 10.71,-22.129 6.82,-30.43 27.25,-34.101 20.43,-3.692 28.2,-5.547 44.74,7.363 16.55,12.91 31.14,34.109 48.64,41.484 17.5,7.371 37.93,16.598 65.15,18.438 27.25,1.855 73.95,2.769 92.43,-3.688 18.47,-6.437 26.26,-18.441 31.13,-37.785 4.86,-19.367 1.93,-57.16 -7.78,-69.152 -9.74,-11.973 -20.6,-24.953 -37.94,-30.418 -47.19,-14.856 -68.62,-10.617 -119.65,-17.524 -58.56,-7.929 -95.35,-49.004 -108.95,-106.933 -10.41,-44.395 -9.71,-87.821 -20.72,-133.192 C 4503.81,61.1719 4450.63,13.75 4374.3,18.4766 c -27.19,1.6797 -43.77,5.5273 -47.66,17.5078 12.17,181.0586 -20.57,313.9066 -40.21,380.5196 0.97,11.062 6.83,18.445 6.83,18.445 z M 2123.85,373.066 c 9.07,26.719 52.37,57.266 99.71,83.993 47.33,26.73 80.28,23.07 94.37,18.293 14.1,-4.778 17.14,-22.903 29.22,-25.762 12.09,-2.871 19.13,-0.957 31.22,3.816 12.07,4.778 79.88,47.574 116.13,53.297 36.25,5.723 99.81,12.66 147.16,-25.523 47.34,-38.172 69.07,-67.723 89.22,-71.551 20.15,-3.809 29.51,6.394 44.62,14.023 15.11,7.637 74.84,45.02 94.98,57.434 20.14,12.398 62.93,26.723 131.4,14.312 68.51,-12.398 147.33,-70.281 185.57,-168.152 38.23,-97.871 29.76,-196.516 29.99,-242.4491 -9.86,-49.1211 -42.87,-52.5899 -64.02,-65 -21.15,-12.40627 -90.8,-29.19143 -114.56,10.2812 -25.24,59.3164 -81.5,195.5859 -110.71,243.1839 -29.2,47.597 -80.61,81.281 -128.96,31.523 -35.02,-38.816 -2.42,-172.988 -11.6,-209.2772 -18.56,-73.3984 -174.41,-122.1289 -205.35,-32.3242 -14.47,41.9724 -41.43,186.7574 -61.56,224.9414 -20.14,38.176 -41.91,59.375 -91.25,60.313 -49.35,0.957 -56.4,-17.176 -63.45,-28.633 -7.04,-11.457 -12.22,-40.989 -13.09,-60.137 l -7.06,-154.98 c -0.31,-6.9146 0.02,-42.0044 -32.21,-59.1802 -32.24,-17.1875 -132.96,-29.9414 -146.06,-22.3047 -13.09,7.625 -14.61,0.0977 -18.53,38.6836 l -22.17,217.6443 c -0.99,19.082 -12.07,66.809 -3.01,93.535 z m -714.96,11.028 c 57.29,23.933 136.23,1.48 185.93,-67.903 49.71,-69.394 93.91,-147.578 2.92,-188.222 -90.98,-40.6331 -150.82,4.773 -200.54,74.168 -49.72,69.386 -45.6,158.019 11.69,181.957 z M 1781.46,496.16 C 1722.09,511.727 1194.11,465.469 1174.17,190.781 1168.36,12.2578 1333.54,-1.27734 1388.71,0.078125 1503.01,2.89063 1631.69,60.3047 1654.84,90.7617 c 22.15,28.4963 38.85,9.5003 54.87,-9.3945 10.55,-12.4414 15.55,-39.1719 37.94,-51.2383 35.17,-18.957 202.85,-17.3086 170.98,191.5821 -14.66,108.609 -45.09,194.629 -73.32,234.461 -24.72,34.914 -50.92,37.262 -63.85,39.988 z M 0,730.527 385.219,841.484 c 0,0 122.672,-89.89 232.426,-77.683 -16.704,71.406 -66.102,153.465 -66.102,153.465 32.379,1.539 176.008,30.468 241.023,52.058 33.395,-43.015 76.793,-163.57 99.559,-218.492 C 972.805,744.234 2256.8,731.188 2375.86,728.438 2214.21,675.336 1395.99,604.762 932.324,554.398 947.809,369.473 949.82,210.117 936.285,25.1953 l -249.437,0.586 C 686.406,217.891 681.051,354.805 668.516,532.059 302.418,507.113 27.9648,609.734 0,730.527 v 0" /></g></g></svg>