<?xml version="1.0" encoding="utf-8"?>
<!-- Generator: Adobe Illustrator 23.0.1, SVG Export Plug-In . SVG Version: 6.00 Build 0)  -->
<svg version="1.1" id="Ebene_1" xmlns="http://www.w3.org/2000/svg" xmlns:xlink="http://www.w3.org/1999/xlink" x="0px" y="0px"
	 viewBox="0 0 488 191" style="enable-background:new 0 0 488 191;" xml:space="preserve">
<style type="text/css">
	.st0{opacity:0.49;fill:#C6C6C6;}
	.st1{fill:#FFFFFF;}
</style>
<path class="st0" d="M214.6,39.4c-3.7,3-7.2,6.1-10.4,9.3s-6.1,6.4-8.7,9.5c-2.6,3.1-4.8,6.1-6.8,9c-1.9,2.8-3.5,5.3-4.8,7.4
	s-2.2,3.8-2.8,5.1c-0.6,1.3-0.9,1.9-0.7,1.9c-2.6,0-3.5-1.9-2.7-5.7c0.8-3.9,3-8.7,6.5-14.4c3.6-5.7,8.3-12,14.2-18.9
	c4.3-4.8,9-9.5,14.1-14.2s10.5-8.9,16.2-12.5c5.7-3.7,11.6-6.6,17.8-8.9s12.5-3.4,19-3.4s12.1,0.9,16.8,2.8
	c4.7,1.9,8.5,4.4,11.6,7.5c3.1,3.2,5.4,6.9,6.9,11.1s2.4,8.7,2.6,13.4s-0.2,9.5-1.3,14.4c-1.1,4.9-2.7,9.7-4.8,14.2
	c-2.1,4.6-4.7,8.8-7.8,12.8c-3.1,4-6.5,7.4-10.4,10.2c0.1,0.1,0.3,0.1,0.4,0.2c0.2,0.1,0.3,0.1,0.5,0.2c5.7,2.1,10.6,4.8,14.8,8.2
	c4.2,3.4,7.7,7.2,10.4,11.5c2.7,4.3,4.6,8.9,5.8,13.8c1.2,4.9,1.6,9.9,1.2,15c-0.7,8.9-2.8,16.6-6.5,23s-8.4,11.5-14.1,15.5
	s-12.3,6.8-19.5,8.6c-7.3,1.7-14.8,2.4-22.7,2.2c-7.9-0.3-15.7-1.5-23.6-3.7c-7.9-2.2-15.3-5.2-22.3-9.1c-1.1-0.6-1.8-1.2-2.1-1.8
	s-0.3-1.2-0.1-1.8s0.6-1.1,1.1-1.5c0.6-0.5,1.1-0.8,1.7-1.2c5.9,1.6,11.8,3,17.7,4.3c5.8,1.3,11.6,2.1,17.4,2.4
	c8,0.5,15.3-0.3,21.7-2.5c6.4-2.2,11.8-5.2,16.1-9.1c4.3-3.9,7.4-8.3,9.3-13.4c1.9-5.1,2.4-10.2,1.4-15.4s-3.5-10.2-7.6-15.1
	s-10-9-17.7-12.5c-0.7,4.2-1.4,8.1-1.9,11.6c-0.6,3.6-1.2,7.2-2,10.8s-1.7,7.3-2.8,11.2c-1.1,3.9-2.7,8.2-4.6,12.9
	c-0.7,1.6-1.5,3.3-2.5,5.3s-2.2,3.9-3.5,5.6c-1.3,1.8-2.8,3.2-4.5,4.4c-1.6,1.2-3.4,1.8-5.2,1.8c-1.4,0-2.4-0.4-3-1.1
	c-0.7-0.8-1.1-1.7-1.2-2.9c-0.2-1.2-0.1-2.5,0-3.9c0.2-1.4,0.5-2.8,0.8-4.2c0.4-1.4,0.7-2.6,1.1-3.8c0.4-1.1,0.6-2,0.7-2.6
	c1.8-6.7,2.9-13.6,3.5-20.7c0.6-7.1,0.6-14.1,0.1-21.2c-0.5-7-1.5-14-3-20.8s-3.6-13.3-6.1-19.5c-1.1-2.3-2.2-4.5-3.2-6.7
	s-2-4.2-2.8-6.3c-1.1-2.5-1.6-4.8-1.3-6.8c0.2-2,1-3.6,2.3-4.9c1.3-1.3,2.9-2.3,5-2.9c2.1-0.6,4.4-0.9,6.9-0.7
	c3.4,0.3,6.4,1.1,9,2.5s4.9,3.3,6.8,5.5c1.9,2.2,3.6,4.8,4.9,7.6c1.3,2.9,2.4,5.9,3.3,9s1.6,6.2,2.1,9.4c0.5,3.2,0.9,6.2,1.2,9.1
	c2.5-0.8,4.9-2,7.2-3.7c2.3-1.7,4.5-3.7,6.4-6.1c3.4-4.1,6-8.4,7.7-12.8c1.8-4.4,2.7-8.7,2.8-12.8c0.1-4.1-0.5-8-2-11.5
	c-1.4-3.6-3.7-6.6-6.7-9.1s-6.9-4.3-11.5-5.5c-4.6-1.2-9.9-1.4-16-0.7c-5.9,0.7-11.9,2.4-18,4.9C226.5,31.3,220.6,34.9,214.6,39.4z"
	/>
<g>
	<path class="st1" d="M34,54.4c-2.7,2.2-5.3,4.5-7.6,6.9c-2.4,2.4-4.5,4.7-6.4,7s-3.6,4.5-5,6.6s-2.6,3.9-3.5,5.5s-1.6,2.8-2.1,3.7
		c-0.5,0.9-0.6,1.4-0.5,1.4c-1.9,0-2.6-1.4-2-4.2c0.6-2.9,2.2-6.4,4.8-10.6s6.1-8.8,10.5-13.9c3.2-3.5,6.6-7,10.4-10.4
		c3.8-3.5,7.7-6.5,11.9-9.2s8.5-4.9,13.1-6.6c4.6-1.7,9.2-2.5,14-2.5s8.9,0.7,12.3,2.1s6.3,3.2,8.5,5.5c2.3,2.3,3.9,5,5.1,8.1
		c1.1,3.1,1.8,6.4,1.9,9.8s-0.2,7-1,10.6c-0.8,3.6-2,7.1-3.5,10.5c-1.6,3.4-3.5,6.5-5.7,9.4c-2.3,2.9-4.8,5.4-7.6,7.5
		c0.1,0,0.2,0.1,0.3,0.1c0.1,0,0.3,0.1,0.4,0.1c4.2,1.5,7.8,3.6,10.9,6c3.1,2.5,5.6,5.3,7.6,8.5c2,3.1,3.4,6.5,4.3,10.2
		c0.9,3.6,1.2,7.3,0.9,11.1c-0.5,6.6-2.1,12.2-4.8,16.9c-2.7,4.7-6.2,8.5-10.4,11.4c-4.2,2.9-9,5-14.4,6.3s-10.9,1.8-16.7,1.6
		s-11.6-1.1-17.4-2.7c-5.8-1.6-11.3-3.8-16.4-6.7c-0.8-0.4-1.3-0.9-1.5-1.3c-0.2-0.5-0.3-0.9-0.1-1.3c0.1-0.4,0.4-0.8,0.8-1.1
		s0.8-0.6,1.3-0.9c4.4,1.2,8.7,2.2,13,3.1c4.3,0.9,8.6,1.5,12.8,1.8c5.9,0.4,11.2-0.2,15.9-1.8s8.7-3.8,11.8-6.7
		c3.2-2.8,5.5-6.1,6.9-9.8s1.8-7.5,1-11.3c-0.7-3.8-2.6-7.5-5.6-11.1s-7.4-6.6-13-9.2c-0.5,3.1-1,5.9-1.4,8.6
		c-0.4,2.6-0.9,5.3-1.4,7.9c-0.6,2.6-1.2,5.4-2.1,8.2c-0.8,2.9-2,6-3.3,9.5c-0.5,1.2-1.1,2.5-1.8,3.9c-0.7,1.5-1.6,2.8-2.6,4.1
		s-2.1,2.4-3.3,3.2c-1.2,0.9-2.5,1.3-3.8,1.3c-1,0-1.8-0.3-2.2-0.8c-0.5-0.6-0.8-1.3-0.9-2.1c-0.1-0.9-0.1-1.8,0-2.9
		c0.1-1.1,0.3-2.1,0.6-3.1s0.5-1.9,0.8-2.8c0.3-0.8,0.4-1.5,0.5-1.9c1.3-4.9,2.2-10,2.6-15.2c0.4-5.2,0.5-10.4,0.1-15.6
		C50.5,102,49.7,97,48.6,92c-1.1-5-2.6-9.8-4.5-14.3c-0.8-1.7-1.6-3.3-2.4-4.9c-0.8-1.6-1.5-3.1-2.1-4.6c-0.8-1.9-1.1-3.5-1-5
		c0.2-1.5,0.7-2.7,1.7-3.6c0.9-1,2.2-1.7,3.7-2.1c1.5-0.5,3.2-0.6,5.1-0.5c2.5,0.2,4.7,0.8,6.6,1.9c1.9,1.1,3.6,2.4,5,4
		s2.6,3.5,3.6,5.6s1.8,4.3,2.4,6.6c0.6,2.3,1.2,4.6,1.5,6.9c0.4,2.4,0.7,4.6,0.9,6.7c1.8-0.6,3.6-1.5,5.3-2.7
		c1.7-1.2,3.3-2.7,4.7-4.5c2.5-3,4.4-6.2,5.7-9.4c1.3-3.2,2-6.4,2.1-9.4s-0.4-5.9-1.4-8.5c-1.1-2.6-2.7-4.9-4.9-6.7
		c-2.2-1.8-5-3.2-8.4-4c-3.4-0.9-7.3-1-11.8-0.5c-4.4,0.5-8.8,1.7-13.2,3.6C42.7,48.4,38.3,51,34,54.4z"/>
	<path class="st1" d="M124.7,54.5c-0.3,7.3-0.9,14.4-1.8,21.5c-0.9,7-1.7,14-2.2,21c-0.1,2.4-0.4,5.2-0.6,8.1c-0.3,3-0.4,6-0.3,9
		c0,2,0.2,3.4,0.5,4.3c0.3,0.8,0.6,1.3,1,1.3s0.9-0.3,1.4-1c0.5-0.6,1.1-1.5,1.7-2.4c0.9-1.7,1.9-3.5,3-5.5c1.1-2,2.2-4.1,3.2-6.2
		s2.1-4.2,3.2-6.2c1-2,2-3.9,2.8-5.7c0.3-0.1,0.6-0.2,0.9-0.2c0.3,0,0.6,0.1,0.9,0.2c0.3,0.1,0.5,0.3,0.7,0.5s0.2,0.5,0.2,0.9
		c-0.7,1.6-1.5,3.4-2.5,5.4c-0.9,2-1.9,4.1-3,6.3c-1.1,2.2-2.1,4.4-3.3,6.6c-1.1,2.2-2.2,4.4-3.3,6.4c-1.2,2.2-2.2,4.1-3.3,5.8
		c-1,1.7-2.2,3.1-3.6,4.1c-2.4,1.9-4.6,1.8-6.6-0.2c-1.7-1.8-2.9-3.9-3.6-6.2c-0.7-2.4-1.2-4.7-1.4-7c-0.3-3-0.3-6-0.1-9
		c0.2-3,0.4-5.9,0.5-8.7c0.4-7.2,1-14.2,1.7-20.9c0.8-6.7,1.4-13.5,2-20.3l0.6-6.3c0.1-2.6,0.6-4.4,1.5-5.4s2.1-1.3,3.5-0.9
		c1.4,0.3,2.6,0.8,3.4,1.5s1.5,1.5,1.9,2.4c0.4,1,0.7,2,0.8,3.2C124.7,51.9,124.7,53.2,124.7,54.5z"/>
	<path class="st1" d="M194.1,93.3c-1,2-2,4.1-3,6.4c-1.1,2.3-2.2,4.7-3.3,7.2c-1.2,2.4-2.4,4.9-3.6,7.3c-1.2,2.4-2.5,4.7-3.8,6.8
		c-1.1,1.7-2.2,3.3-3.4,4.7c-1.2,1.4-2.4,2.6-3.6,3.6c-1.2,1-2.4,1.6-3.6,1.9c-1.2,0.3-2.3,0.2-3.3-0.3s-1.8-1.5-2.6-3
		c-0.7-1.5-1.2-3.5-1.5-6.2c-0.2-2.1-0.3-4.1-0.2-6.2s0.2-4,0.2-5.9c-0.7,1.2-1.5,2.8-2.4,4.5c-0.9,1.8-1.9,3.6-3,5.4
		s-2.3,3.6-3.6,5.4s-2.6,3.2-4.1,4.5c-1.5,1.2-3,2.1-4.8,2.5c-1.7,0.5-3.5,0.3-5.4-0.3c-2.4-0.9-4.3-2.4-5.7-4.5
		c-1.3-2.1-2.2-4.6-2.6-7.5c-0.4-2.9-0.4-6.1,0.1-9.5s1.3-6.9,2.4-10.4c1.2-3.5,2.6-7,4.4-10.3c1.8-3.3,3.8-6.4,6.1-9.1
		s4.7-5,7.4-6.8s5.5-3,8.4-3.5c2.9-0.4,5.3-0.2,7.3,0.6c1.1,0.4,2.1,1.1,3.1,2.2s1.7,2.3,2.1,3.5c0.4,1.3,0.5,2.5,0.3,3.7
		c-0.3,1.2-1.1,2.1-2.4,2.8c-3.2,1.4-6.4,3.4-9.5,6.1s-5.8,5.8-8.1,9.2c-0.6,0.9-1.2,2-1.9,3.3s-1.4,2.7-2.1,4.2
		c-0.7,1.5-1.3,3.1-1.8,4.7s-0.9,3.2-1.1,4.7c-0.2,1.5-0.2,2.9,0,4.1c0.2,1.3,0.7,2.3,1.5,3.1c0.7,0.7,1.7,0.6,2.8-0.1
		c1.2-0.7,2.4-2.2,3.8-4.4c1.2-1.7,2.3-3.7,3.5-5.8c1.2-2.1,2.3-4.2,3.3-6.3c1.1-2.1,2.1-4,3-5.8s1.8-3.2,2.5-4.2
		c0.6-0.8,1.3-1.4,2.2-1.9s1.8-0.8,2.7-0.9s1.8,0,2.7,0.3s1.6,0.9,2.1,1.8c0.1,0.1,0.2,0.3,0.3,0.4s0.2,0.3,0.2,0.7
		c0,0.3,0,0.8,0,1.5c0,0.6-0.1,1.5-0.3,2.7c0,0.2-0.2,1-0.5,2.4s-0.5,3-0.8,4.9s-0.5,3.8-0.6,5.8s-0.2,3.6,0,4.9
		c0.1,1.3,0.5,2,1,2.3c0.6,0.2,1.4-0.4,2.6-2c1-1.4,2.1-3.1,3.3-5.2s2.4-4.3,3.6-6.7s2.4-4.8,3.7-7.3c1.2-2.5,2.4-4.8,3.4-7
		c0.4-0.3,0.8-0.5,1.2-0.6c0.4,0,0.7,0,1,0.1s0.5,0.3,0.6,0.6c0.1,0.3,0.2,0.5,0.1,0.8h-0.3L194.1,93.3L194.1,93.3z"/>
	<path class="st1" d="M216.2,84.5c0-0.4,0-0.9,0-1.5s-0.1-1.1-0.2-1.6c-0.1-0.5-0.3-0.9-0.6-1.3s-0.6-0.6-1-0.6
		c-0.9-0.1-1.8,0.4-2.8,1.6s-2,2.8-3,4.8s-2,4.3-2.9,6.9s-1.8,5.3-2.5,8s-1.3,5.4-1.7,8.1s-0.6,5.1-0.6,7.2s0.3,3.9,0.9,5.3
		c0.6,1.4,1.5,2.2,2.7,2.4c1.6,0.2,3.3-0.1,5-1s3.3-2.1,5-3.8c1.6-1.6,3.2-3.5,4.7-5.7c1.5-2.1,2.9-4.3,4.3-6.6
		c1.3-2.3,2.6-4.5,3.7-6.7c1.1-2.2,2.1-4.1,2.9-5.8c0.8-1.7,1.5-3.1,2-4.1s0.8-1.5,0.9-1.4c0.5,0,1,0.1,1.3,0.5
		c0.4,0.4,0.4,1.1,0.3,2c-0.4,1.1-1,2.5-1.8,4.3s-1.7,3.7-2.8,5.8c-1.1,2.1-2.2,4.3-3.5,6.6c-1.3,2.3-2.6,4.5-4,6.6s-2.8,4.1-4.2,6
		s-2.8,3.4-4.2,4.6c-3.2,2.7-6.2,4.5-9.2,5.3s-5.7,0.7-8.1-0.3c-2.4-0.9-4.5-2.7-6.3-5.2c-1.7-2.5-3-5.7-3.7-9.6
		c-0.6-3.2-0.7-6.6-0.4-10.1s1-6.9,2-10.3s2.3-6.5,3.9-9.5c1.6-3,3.4-5.6,5.4-7.7s4.1-3.7,6.3-4.8s4.5-1.4,6.8-1
		c1.4,0.3,2.6,0.8,3.6,1.6c1,0.8,1.7,1.6,2.3,2.6s1,2,1.2,3.1s0.3,2.1,0.3,2.9c0,0.9-0.1,1.6-0.4,2.1c-0.2,0.6-0.5,0.8-0.8,0.8
		c-0.2,0-0.4-0.1-0.5-0.2C216.4,84.7,216.3,84.6,216.2,84.5z"/>
	<path class="st1" d="M284.7,93.3c-1.1,2.6-2.2,5-3.3,7.3c-1.1,2.3-2.2,4.5-3.1,6.7c-0.9,2-1.8,4.1-2.9,6.2s-2.2,4.2-3.5,6
		s-2.7,3.6-4.2,5s-3.2,2.4-4.9,2.9c-2.4,0.7-4.8,0.5-7.1-0.8c-2.3-1.2-4.5-3.1-6.6-5.7c-2.1-2.5-3.9-5.5-5.6-9
		c-1.7-3.5-3.1-7.2-4.2-11c-0.2,2-0.4,4.1-0.5,6.3s-0.2,4.5-0.1,6.8c0,1.7,0,3.2-0.1,4.6s-0.2,2.7-0.4,3.8c-0.4,2.7-1,4.7-1.8,5.8
		s-1.6,1.6-2.6,1.3c-0.9-0.2-1.8-0.7-2.8-1.5s-1.9-2.2-2.6-4.3c-0.6-1.9-0.9-4-1.1-6.3c-0.2-2.3-0.2-4.6-0.1-6.9
		c0.1-2.4,0.2-4.7,0.4-6.9c0.2-2.3,0.3-4.4,0.4-6.3c0.4-7.2,1-14.2,1.7-20.9c0.8-6.7,1.4-13.5,2-20.3l0.6-6.3
		c0.1-2.6,0.6-4.4,1.5-5.4s2.1-1.3,3.5-0.9c1.4,0.3,2.6,0.8,3.4,1.5c0.8,0.7,1.5,1.5,1.9,2.4c0.4,1,0.7,2,0.8,3.2s0.2,2.5,0.1,3.8
		c-0.3,6.8-0.8,13.3-1.6,19.7s-1.5,12.7-2.1,19.2c3.6-2.6,6.8-5.7,9.5-9.5c2.7-3.7,4.9-7.6,6.4-11.7c0.3-0.9,0.6-1.8,0.8-2.6
		c0.3-0.8,0.6-1.6,0.9-2.4c0.3-1,0.8-1.7,1.3-2.1c0.5-0.5,1.1-0.7,1.7-0.7s1.2,0.2,1.9,0.6c0.6,0.4,1.3,0.9,1.8,1.7
		c1.2,1.5,2,2.9,2.3,4.3s0.4,2.8,0.1,4.1c-0.3,1.4-0.8,2.7-1.5,4c-0.8,1.3-1.7,2.6-2.7,3.8c-1.3,1.7-2.8,3.3-4.4,4.8
		s-3.3,2.9-5.1,4.1c-1.8,1.3-3.6,2.4-5.5,3.4s-3.8,1.8-5.7,2.4c1.2,0.2,2.4,0.9,3.6,2c1.2,1.1,2.3,2.4,3.5,3.8
		c1.2,1.5,2.3,3,3.5,4.6s2.3,3.2,3.5,4.6s2.4,2.6,3.7,3.5c1.2,0.9,2.5,1.4,3.9,1.5c1.3,0,2.5-0.4,3.7-1.3c1.2-0.8,2.3-1.9,3.2-3.1
		c1-1.2,1.9-2.4,2.6-3.7c0.8-1.3,1.4-2.4,1.9-3.3c1.2-2.2,2.4-4.5,3.6-6.8s2.2-4.5,3.2-6.5c0.7-0.5,1.3-0.7,1.8-0.6
		C283.9,92.2,284.4,92.6,284.7,93.3z"/>
	<path class="st1" d="M313,54.4c-2.7,2.2-5.3,4.5-7.6,6.9s-4.5,4.7-6.4,7s-3.6,4.5-5,6.6s-2.6,3.9-3.5,5.5s-1.6,2.8-2.1,3.7
		s-0.6,1.4-0.5,1.4c-1.9,0-2.6-1.4-2-4.2c0.6-2.9,2.2-6.4,4.8-10.6c2.6-4.2,6.1-8.8,10.5-13.9c3.2-3.5,6.6-7,10.4-10.4
		c3.8-3.5,7.7-6.5,11.9-9.2c4.2-2.7,8.5-4.9,13.1-6.6c4.6-1.7,9.2-2.5,14-2.5s8.9,0.7,12.3,2.1s6.3,3.2,8.5,5.5
		c2.3,2.3,3.9,5,5.1,8.1c1.1,3.1,1.8,6.4,1.9,9.8c0.1,3.5-0.2,7-1,10.6c-0.8,3.6-2,7.1-3.5,10.5c-1.6,3.4-3.5,6.5-5.7,9.4
		c-2.3,2.9-4.8,5.4-7.6,7.5c0.1,0,0.2,0.1,0.3,0.1c0.1,0,0.3,0.1,0.4,0.1c4.2,1.5,7.8,3.6,10.9,6c3.1,2.5,5.6,5.3,7.6,8.5
		c2,3.1,3.4,6.5,4.3,10.2c0.9,3.6,1.2,7.3,0.9,11.1c-0.5,6.6-2.1,12.2-4.8,16.9c-2.7,4.7-6.2,8.5-10.4,11.4c-4.2,2.9-9,5-14.4,6.3
		s-10.9,1.8-16.7,1.6c-5.8-0.2-11.6-1.1-17.4-2.7c-5.8-1.6-11.3-3.8-16.4-6.7c-0.8-0.4-1.3-0.9-1.5-1.3s-0.3-0.9-0.1-1.3
		c0.1-0.4,0.4-0.8,0.8-1.1s0.8-0.6,1.3-0.9c4.4,1.2,8.7,2.2,13,3.1c4.3,0.9,8.6,1.5,12.8,1.8c5.9,0.4,11.2-0.2,15.9-1.8
		c4.7-1.6,8.7-3.8,11.8-6.7c3.2-2.8,5.5-6.1,6.9-9.8s1.8-7.5,1-11.3c-0.7-3.8-2.6-7.5-5.6-11.1s-7.4-6.6-13-9.2
		c-0.5,3.1-1,5.9-1.4,8.6c-0.4,2.6-0.9,5.3-1.4,7.9c-0.6,2.6-1.2,5.4-2.1,8.2c-0.8,2.9-2,6-3.3,9.5c-0.5,1.2-1.1,2.5-1.8,3.9
		c-0.7,1.5-1.6,2.8-2.6,4.1s-2.1,2.4-3.3,3.2c-1.2,0.9-2.5,1.3-3.8,1.3c-1,0-1.8-0.3-2.2-0.8c-0.5-0.6-0.8-1.3-0.9-2.1
		c-0.1-0.9-0.1-1.8,0-2.9c0.1-1.1,0.3-2.1,0.6-3.1c0.3-1,0.5-1.9,0.8-2.8c0.3-0.8,0.4-1.5,0.5-1.9c1.3-4.9,2.2-10,2.6-15.2
		s0.5-10.4,0.1-15.6s-1.1-10.3-2.2-15.3s-2.6-9.8-4.5-14.3c-0.8-1.7-1.6-3.3-2.4-4.9s-1.5-3.1-2.1-4.6c-0.8-1.9-1.1-3.5-1-5
		c0.2-1.5,0.7-2.7,1.7-3.6c0.9-1,2.2-1.7,3.7-2.1c1.5-0.5,3.2-0.6,5.1-0.5c2.5,0.2,4.7,0.8,6.6,1.9c1.9,1.1,3.6,2.4,5,4
		s2.6,3.5,3.6,5.6s1.8,4.3,2.4,6.6c0.6,2.3,1.2,4.6,1.5,6.9c0.4,2.4,0.7,4.6,0.9,6.7c1.8-0.6,3.6-1.5,5.3-2.7
		c1.7-1.2,3.3-2.7,4.7-4.5c2.5-3,4.4-6.2,5.7-9.4c1.3-3.2,2-6.4,2.1-9.4s-0.4-5.9-1.4-8.5c-1.1-2.6-2.7-4.9-4.9-6.7
		c-2.2-1.8-5-3.2-8.4-4c-3.4-0.9-7.3-1-11.8-0.5c-4.4,0.5-8.8,1.7-13.2,3.6C321.8,48.4,317.4,51,313,54.4z"/>
	<path class="st1" d="M389.4,117.5c-0.3-1.2-0.6-2.6-0.8-4.5s-0.3-3.9-0.3-6.1c0-2.3,0.2-4.6,0.5-7.2c0.3-2.5,0.8-5,1.4-7.6
		c0.7-2.5,1.5-5,2.6-7.4s2.4-4.6,4-6.6c1.1-1.3,2.3-2.3,3.5-2.9s2.5-0.9,3.8-0.8c1.3,0,2.5,0.3,3.7,0.8s2.4,1.2,3.5,2
		c0.9,0.7,1.5,1.4,1.8,2.1s0.4,1.3,0.3,2s-0.3,1.4-0.6,2.2c-0.3,0.8-0.7,1.6-1,2.5c-1.3,3.6-2.3,6.7-3.1,9.3
		c-0.8,2.6-1.4,4.8-1.8,6.7c-0.4,1.9-0.6,3.5-0.7,4.9s-0.1,2.7,0,3.9c0.1,2.5,0.5,4.8,1,6.9s1.3,3.6,2.1,4.7
		c0.9,1.1,1.8,1.5,2.9,1.4s2.2-1.1,3.4-3c1.7-2.6,2.9-5.4,3.7-8.3c0.8-3,1.3-6,1.6-9.2c-1.7,0.1-3.1-0.2-4.2-1s-1.9-1.9-2.5-3.3
		s-0.9-2.9-1-4.5s0-3.1,0.3-4.6c0.2-0.7,0.4-1.5,0.7-2.2c0.3-0.7,0.6-1.4,1-2s0.9-1.1,1.5-1.5s1.3-0.6,2.2-0.6
		c1.9,0,3.2,0.5,4.1,1.5s1.4,2.3,1.7,3.9c0.3,1.6,0.4,3.3,0.4,5.1c0,1.9-0.1,3.6-0.1,5.3c1,0.1,2-0.2,3-1s2-1.6,3-2.6
		c0.9-1,1.8-1.9,2.4-2.8c0.7-0.9,1.2-1.5,1.5-1.7c0.4,0,0.9,0.1,1.4,0.4c0.6,0.3,0.9,0.6,0.9,1c-0.8,1.1-1.7,2.2-2.6,3.2
		c-0.9,1.1-1.8,2-2.8,3c-1,0.9-2.1,1.7-3.2,2.4c-1.2,0.7-2.4,1.2-3.7,1.4c-0.3,3.3-1,6.6-1.9,9.8c-1,3.2-2.3,6.4-4.1,9.6
		c-1.1,1.9-2.2,3.6-3.6,5c-1.3,1.4-2.8,2.5-4.4,3.2c-1.6,0.7-3.4,1-5.4,0.9s-4.2-0.8-6.6-1.9c-2.2-1.1-4.1-2.6-5.8-4.6
		C391.4,123,390.2,120.5,389.4,117.5z M419,89.7c-0.1,0.6-0.3,1.5-0.5,2.6s-0.3,2.2-0.2,3.3c0,1.1,0.3,2.1,0.7,2.9
		c0.4,0.8,1.1,1.3,2.2,1.3c0.1-1.2,0.2-2.6,0.3-4.1c0.1-1.5,0.1-3.3,0-5.6c0-0.6-0.1-1.2-0.2-1.7s-0.3-0.8-0.6-0.9s-0.5-0.1-0.8,0.2
		C419.6,88.1,419.3,88.7,419,89.7z"/>
	<path class="st1" d="M428.5,135.5c0.3-0.5,0.9-1.4,1.7-2.9s1.7-3.2,2.8-5.4c1.1-2.2,2.3-4.6,3.7-7.3c1.4-2.7,2.8-5.6,4.3-8.5
		c-1.3-3.1-2.5-6.3-3.7-9.5c-1.2-3.3-2.2-6.5-3.2-9.6c-0.9-3.1-1.7-6-2.4-8.7c-0.7-2.7-1.2-5.1-1.6-7c0.7-1.2,1.8-2.2,3.3-2.8
		s3.1-0.9,4.9-0.9c1.7,0.1,3.4,0.5,5.1,1.4s3,2.2,4,4c0.4,1.5,1,3.4,1.6,5.6c0.6,2.3,1.3,4.8,2,7.5c1.8-3.7,3.5-7.1,4.9-10.1
		c1.5-3,2.6-5.4,3.4-7.2c0.7-0.4,1.3-0.6,1.8-0.6s0.9,0.5,1.4,1.5h-0.1c-0.4,1-1,2.2-1.7,3.7s-1.5,3.1-2.3,4.9
		c-0.9,1.8-1.8,3.8-2.8,5.9s-2.1,4.3-3.2,6.6c0.5,1.9,1.1,4,1.7,6.1c0.6,2.2,1.2,4.3,2,6.4c0.7,2.1,1.6,4.2,2.6,6.1s2.1,3.6,3.4,5
		c0.4,0.5,0.8,0.9,1,1c0.3,0.1,0.5,0.2,0.7,0.3c0.6,0.1,1.4-0.2,2.3-1s2-2.2,3.3-4.3c1.3-2.1,3-5,4.8-8.6c1.9-3.7,4.1-8.4,6.7-14.1
		c0.7-0.4,1.3-0.6,1.6-0.6c0.4,0,0.8,0.5,1.2,1.5h-0.1c-2.5,5.6-4.8,10.4-6.8,14.4s-3.8,7.4-5.4,10.2c-1.6,2.8-2.9,5-4.1,6.7
		s-2.2,3-3.1,4s-1.6,1.7-2.3,2.1c-0.6,0.4-1.2,0.8-1.7,1c-1.4,0.7-2.9,0.7-4.4,0.1c-1.5-0.6-3-1.7-4.4-3.3c-1.5-1.6-2.9-3.6-4.4-5.9
		c-1.4-2.4-2.8-5-4.2-7.8c-1.3,2.7-2.6,5.3-3.9,7.8c-1.2,2.5-2.3,4.7-3.3,6.7c-1,2-1.9,3.7-2.6,5.1c-0.7,1.4-1.2,2.4-1.6,3
		c-0.4,0.1-0.8,0.2-1.1,0.3c-0.4,0.1-0.7,0.1-1,0s-0.5-0.3-0.6-0.7C428.4,136.9,428.4,136.3,428.5,135.5z"/>
</g>
</svg>
