<?xml version="1.0" encoding="utf-8"?>
<!-- Generator: Adobe Illustrator 23.0.1, SVG Export Plug-In . SVG Version: 6.00 Build 0)  -->
<svg version="1.1" id="Ebene_1" xmlns="http://www.w3.org/2000/svg" xmlns:xlink="http://www.w3.org/1999/xlink" x="0px" y="0px"
	 viewBox="0 0 145 191" style="enable-background:new 0 0 145 191;" xml:space="preserve">
<style type="text/css">
	.st0{enable-background:new    ;}
</style>
<path class="st0" d="M39.6,39.4c-3.7,3-7.2,6.1-10.4,9.3s-6.1,6.4-8.7,9.5c-2.6,3.1-4.8,6.1-6.8,9c-1.9,2.8-3.5,5.3-4.8,7.4
	s-2.2,3.8-2.8,5.1c-0.6,1.3-0.9,1.9-0.7,1.9c-2.6,0-3.5-1.9-2.7-5.7c0.8-3.9,3-8.7,6.5-14.4c3.6-5.7,8.3-12,14.2-18.9
	c4.3-4.8,9-9.5,14.1-14.2S48,19.5,53.7,15.9c5.7-3.7,11.6-6.6,17.8-8.9s12.5-3.4,19-3.4s12.1,0.9,16.8,2.8c4.7,1.9,8.5,4.4,11.6,7.5
	c3.1,3.2,5.4,6.9,6.9,11.1s2.4,8.7,2.6,13.4s-0.2,9.5-1.3,14.4c-1.1,4.9-2.7,9.7-4.8,14.2c-2.1,4.6-4.7,8.8-7.8,12.8
	c-3.1,4-6.5,7.4-10.4,10.2c0.1,0.1,0.3,0.1,0.4,0.2c0.2,0.1,0.3,0.1,0.5,0.2c5.7,2.1,10.6,4.8,14.8,8.2c4.2,3.4,7.7,7.2,10.4,11.5
	c2.7,4.3,4.6,8.9,5.8,13.8c1.2,4.9,1.6,9.9,1.2,15c-0.7,8.9-2.8,16.6-6.5,23s-8.4,11.5-14.1,15.5s-12.3,6.8-19.5,8.6
	c-7.3,1.7-14.8,2.4-22.7,2.2c-7.9-0.3-15.7-1.5-23.6-3.7c-7.9-2.2-15.3-5.2-22.3-9.1c-1.1-0.6-1.8-1.2-2.1-1.8s-0.3-1.2-0.1-1.8
	s0.6-1.1,1.1-1.5c0.6-0.5,1.1-0.8,1.7-1.2c5.9,1.6,11.8,3,17.7,4.3c5.8,1.3,11.6,2.1,17.4,2.4c8,0.5,15.3-0.3,21.7-2.5
	c6.4-2.2,11.8-5.2,16.1-9.1c4.3-3.9,7.4-8.3,9.3-13.4c1.9-5.1,2.4-10.2,1.4-15.4s-3.5-10.2-7.6-15.1s-10-9-17.7-12.5
	c-0.7,4.2-1.4,8.1-1.9,11.6c-0.6,3.6-1.2,7.2-2,10.8s-1.7,7.3-2.8,11.2c-1.1,3.9-2.7,8.2-4.6,12.9c-0.7,1.6-1.5,3.3-2.5,5.3
	s-2.2,3.9-3.5,5.6c-1.3,1.8-2.8,3.2-4.5,4.4c-1.6,1.2-3.4,1.8-5.2,1.8c-1.4,0-2.4-0.4-3-1.1c-0.7-0.8-1.1-1.7-1.2-2.9
	c-0.2-1.2-0.1-2.5,0-3.9c0.2-1.4,0.5-2.8,0.8-4.2c0.4-1.4,0.7-2.6,1.1-3.8c0.4-1.1,0.6-2,0.7-2.6c1.8-6.7,2.9-13.6,3.5-20.7
	c0.6-7.1,0.6-14.1,0.1-21.2c-0.5-7-1.5-14-3-20.8s-3.6-13.3-6.1-19.5c-1.1-2.3-2.2-4.5-3.2-6.7s-2-4.2-2.8-6.3
	c-1.1-2.5-1.6-4.8-1.3-6.8c0.2-2,1-3.6,2.3-4.9c1.3-1.3,2.9-2.3,5-2.9c2.1-0.6,4.4-0.9,6.9-0.7c3.4,0.3,6.4,1.1,9,2.5
	s4.9,3.3,6.8,5.5c1.9,2.2,3.6,4.8,4.9,7.6c1.3,2.9,2.4,5.9,3.3,9s1.6,6.2,2.1,9.4c0.5,3.2,0.9,6.2,1.2,9.1c2.5-0.8,4.9-2,7.2-3.7
	c2.3-1.7,4.5-3.7,6.4-6.1c3.4-4.1,6-8.4,7.7-12.8c1.8-4.4,2.7-8.7,2.8-12.8c0.1-4.1-0.5-8-2-11.5c-1.4-3.6-3.7-6.6-6.7-9.1
	S96,25.2,91.4,24c-4.6-1.2-9.9-1.4-16-0.7c-5.9,0.7-11.9,2.4-18,4.9C51.5,31.3,45.6,34.9,39.6,39.4z"/>
</svg>
